<?xml version="1.0" encoding="utf-8"?>
<!-- Generator: Adobe Illustrator 22.0.1, SVG Export Plug-In . SVG Version: 6.00 Build 0)  -->
<svg version="1.2" baseProfile="tiny" id="g-template_viz-phone-img"
	 xmlns="http://www.w3.org/2000/svg" xmlns:xlink="http://www.w3.org/1999/xlink" x="0px" y="0px" viewBox="0 0 320 665.906"
	 xml:space="preserve">
<g>
	<rect y="-1.897" width="320" height="670.976"/>
	<line fill="none" stroke="#D2D2D2" stroke-width="0.5" x1="276" y1="305" x2="276" y2="628.162"/>
	<line fill="none" stroke="#D2D2D2" stroke-width="0.5" x1="160" y1="305" x2="160" y2="628.162"/>
	<line fill="none" stroke="#D2D2D2" stroke-width="0.5" x1="44" y1="305" x2="44" y2="628.162"/>
	<g>
		<line fill="none" stroke="#D2D2D2" stroke-width="0.5" x1="44" y1="322.162" x2="276" y2="322.162"/>
		<line fill="none" stroke="#D2D2D2" stroke-width="0.5" x1="44" y1="305" x2="276" y2="305"/>
		<line fill="none" stroke="#D2D2D2" stroke-width="0.5" x1="44" y1="340.162" x2="276" y2="340.162"/>
		<line fill="none" stroke="#D2D2D2" stroke-width="0.5" x1="44" y1="358.162" x2="276" y2="358.162"/>
		<line fill="none" stroke="#D2D2D2" stroke-width="0.5" x1="44" y1="376.162" x2="276" y2="376.162"/>
		<line fill="none" stroke="#D2D2D2" stroke-width="0.5" x1="44" y1="394.162" x2="276" y2="394.162"/>
		<line fill="none" stroke="#D2D2D2" stroke-width="0.5" x1="44" y1="412.162" x2="276" y2="412.162"/>
		<line fill="none" stroke="#D2D2D2" stroke-width="0.5" x1="44" y1="430.162" x2="276" y2="430.162"/>
		<line fill="none" stroke="#D2D2D2" stroke-width="0.5" x1="44" y1="448.162" x2="276" y2="448.162"/>
		<line fill="none" stroke="#D2D2D2" stroke-width="0.5" x1="44" y1="466.162" x2="276" y2="466.162"/>
		<line fill="none" stroke="#D2D2D2" stroke-width="0.5" x1="44" y1="484.162" x2="276" y2="484.162"/>
		<line fill="none" stroke="#D2D2D2" stroke-width="0.5" x1="44" y1="502.162" x2="276" y2="502.162"/>
		<line fill="none" stroke="#D2D2D2" stroke-width="0.5" x1="44" y1="520.162" x2="276" y2="520.162"/>
		<line fill="none" stroke="#D2D2D2" stroke-width="0.5" x1="44" y1="538.162" x2="276" y2="538.162"/>
		<line fill="none" stroke="#D2D2D2" stroke-width="0.5" x1="44" y1="556.162" x2="276" y2="556.162"/>
		<line fill="none" stroke="#D2D2D2" stroke-width="0.5" x1="44" y1="574.162" x2="276" y2="574.162"/>
		<line fill="none" stroke="#D2D2D2" stroke-width="0.5" x1="44" y1="592.162" x2="276" y2="592.162"/>
		<line fill="none" stroke="#D2D2D2" stroke-width="0.5" x1="44" y1="610.162" x2="276" y2="610.162"/>
		<line fill="none" stroke="#D2D2D2" stroke-width="0.5" x1="44" y1="628.162" x2="276" y2="628.162"/>
	</g>
	<line fill="none" stroke="#FFFFFF" stroke-width="0.75" stroke-miterlimit="10" x1="45.104" y1="39.865" x2="276" y2="39.865"/>
	<line fill="none" stroke="#FFFFFF" stroke-width="0.75" stroke-miterlimit="10" x1="45.104" y1="187.865" x2="276" y2="187.865"/>
	<line fill="none" stroke="#FFFFFF" stroke-width="0.75" stroke-miterlimit="10" x1="44" y1="277.865" x2="276" y2="277.865"/>
	
		<line fill="none" stroke="#FFFFFF" stroke-width="0.75" stroke-miterlimit="10" x1="159.753" y1="187.865" x2="159.753" y2="222.602"/>
	<g>
		<rect x="82.159" y="592" fill="#E00C19" width="2.359" height="18"/>
		<polygon fill="#E00C19" points="85.82,592 85.712,592 85.712,610 85.82,610 88.072,610 88.179,610 88.179,592 88.072,592 		"/>
		<rect x="162.598" y="592" fill="#E00C19" width="2.359" height="18"/>
		<polygon fill="#E00C19" points="174.766,592 174.11,592 172.828,592 171.751,592 171.751,610 172.828,610 174.11,610 174.766,610 
			175.187,610 177.125,610 177.125,592 175.187,592 		"/>
		<polygon fill="#E00C19" points="46.731,592 46.085,592 46.085,610 46.731,610 48.444,610 49.09,610 49.09,592 48.444,592 		"/>
		<rect x="50.069" y="592" fill="#E00C19" width="2.359" height="18"/>
		<polygon fill="#E00C19" points="54.592,592 52.654,592 52.654,610 54.592,610 55.013,610 56.951,610 56.951,592 55.013,592 		"/>
		<polygon fill="#E00C19" points="62.227,592 61.905,592 61.375,592 60.828,592 60.514,592 59.868,592 59.546,592 58.468,592 
			58.468,610 59.546,610 59.868,610 60.514,610 60.828,610 61.375,610 61.905,610 62.227,610 62.874,610 63.735,610 63.735,592 
			62.874,592 		"/>
		<polygon fill="#E00C19" points="70.089,592 68.58,592 68.483,592 67.945,592 67.729,592 67.289,592 66.221,592 64.929,592 
			64.929,610 66.221,610 67.289,610 67.729,610 67.945,610 68.483,610 68.58,610 70.089,610 70.304,610 70.842,610 70.842,592 
			70.304,592 		"/>
		<polygon fill="#E00C19" points="73.211,592 72.467,592 71.714,592 70.852,592 70.852,610 71.714,610 72.467,610 73.211,610 
			74.073,610 74.826,610 74.826,592 74.073,592 		"/>
		<polygon fill="#E00C19" points="214.061,592 213.954,592 213.845,592 213.748,592 212.67,592 211.702,592 211.594,592 
			211.486,592 211.486,610 211.594,610 211.702,610 212.67,610 213.748,610 213.845,610 213.954,610 214.061,610 215.03,610 
			216.107,610 216.107,592 215.03,592 		"/>
		<polygon fill="#E00C19" points="224.614,592 223.86,592 223.752,592 223.644,592 222.577,592 222.362,592 222.255,592 
			221.501,592 221.393,592 221.285,592 221.285,610 221.393,610 221.501,610 222.255,610 222.362,610 222.577,610 223.644,610 
			223.752,610 223.86,610 224.614,610 224.721,610 224.936,610 224.936,592 224.721,592 		"/>
		<polygon fill="#E00C19" points="228.383,592 227.952,592 226.669,592 226.131,592 226.024,592 225.592,592 225.592,610 
			226.024,610 226.131,610 226.669,610 227.952,610 228.383,610 228.49,610 229.028,610 229.028,592 228.49,592 		"/>
		<polygon fill="#E00C19" points="256.919,592 255.842,592 255.088,592 254.882,592 254.559,592 254.442,592 253.483,592 
			252.729,592 252.611,592 252.083,592 251.427,592 251.211,592 250.252,592 249.068,592 248.852,592 248.852,610 249.068,610 
			250.252,610 251.211,610 251.427,610 252.083,610 252.611,610 252.729,610 253.483,610 254.442,610 254.559,610 254.882,610 
			255.088,610 255.842,610 256.919,610 257.241,610 257.241,592 		"/>
		<polygon fill="#E00C19" points="99.378,592 98.958,592 97.45,592 97.019,592 97.019,610 97.45,610 98.958,610 99.378,610 
			99.809,610 101.317,610 101.317,592 99.809,592 		"/>
		<rect x="103.911" y="592" fill="#E00C19" width="2.359" height="18"/>
	</g>
	<g>
		<rect x="46.731" y="556" fill="#243880" width="2.359" height="18"/>
		<polygon fill="#243880" points="66.114,556 66.006,556 66.006,574 66.114,574 68.365,574 68.473,574 68.473,556 68.365,556 		"/>
		<rect x="83.451" y="556" fill="#243880" width="2.359" height="18"/>
		<polygon fill="#243880" points="213.317,556 213.2,556 212.563,556 210.84,556 210.84,574 212.563,574 213.2,574 213.317,574 
			214.922,574 215.676,574 215.676,556 214.922,556 		"/>
		<rect x="239.053" y="556" fill="#243880" width="2.359" height="18"/>
		<rect x="247.991" y="556" fill="#243880" width="2.359" height="18"/>
		<polygon fill="#243880" points="255.734,556 254.226,556 254.129,556 253.375,556 251.867,556 251.867,574 253.375,574 
			254.129,574 254.226,574 255.734,574 256.488,574 256.488,556 		"/>
		<polygon fill="#243880" points="52.536,556 52.438,556 50.284,556 50.177,556 50.177,574 50.284,574 52.438,574 52.536,574 
			52.643,574 54.798,574 54.798,556 52.643,556 		"/>
		<polygon fill="#243880" points="62.012,556 61.905,556 61.699,556 61.592,556 61.581,556 59.653,556 59.546,556 59.222,556 
			59.222,574 59.546,574 59.653,574 61.581,574 61.592,574 61.699,574 61.905,574 62.012,574 63.951,574 64.058,574 64.058,556 
			63.951,556 		"/>
		<polygon fill="#243880" points="68.59,556 68.483,556 68.483,574 68.59,574 70.842,574 70.95,574 70.95,556 70.842,556 		"/>
		<rect x="72.467" y="556" fill="#243880" width="2.359" height="18"/>
		<rect x="76.128" y="556" fill="#243880" width="2.359" height="18"/>
		<rect x="80.005" y="556" fill="#243880" width="2.359" height="18"/>
		<polygon fill="#243880" points="99.378,556 98.958,556 98.634,556 97.019,556 97.019,574 98.634,574 98.958,574 99.378,574 
			100.993,574 101.317,574 101.317,556 100.993,556 		"/>
		<rect x="146.553" y="556" fill="#243880" width="2.359" height="18"/>
		<polygon fill="#243880" points="224.183,556 223.322,556 222.685,556 222.675,556 222.568,556 222.255,556 221.824,556 
			221.061,556 220.963,556 220.316,556 220.209,556 219.553,556 219.015,556 218.701,556 218.153,556 217.193,556 216.655,556 
			215.794,556 215.794,574 216.655,574 217.193,574 218.153,574 218.701,574 219.015,574 219.553,574 220.209,574 220.316,574 
			220.963,574 221.061,574 221.824,574 222.255,574 222.568,574 222.675,574 222.685,574 223.322,574 224.183,574 224.614,574 
			225.045,574 225.045,556 224.614,556 		"/>
		<polygon fill="#243880" points="226.131,556 225.377,556 225.377,574 226.131,574 227.736,574 228.49,574 228.49,556 227.736,556 
					"/>
		<polygon fill="#243880" points="244.976,556 244.007,556 244.007,574 244.976,574 246.366,574 247.335,574 247.335,556 
			246.366,556 		"/>
		<polygon fill="#243880" points="104.879,556 103.911,556 103.911,574 104.879,574 106.27,574 107.239,574 107.239,556 106.27,556 
					"/>
	</g>
	<g>
		<polygon fill="#1399D6" points="58.136,340 57.813,340 57.704,340 57.166,340 57.059,340 56.531,340 55.992,340 55.982,340 
			55.776,340 55.453,340 55.345,340 54.807,340 54.7,340 53.623,340 53.623,357.914 54.7,357.914 54.807,357.914 55.345,357.914 
			55.453,357.914 55.776,357.914 55.982,357.914 55.992,357.914 56.531,357.914 57.059,357.914 57.166,357.914 57.704,357.914 
			57.813,357.914 58.136,357.914 58.351,357.914 58.89,357.914 58.89,340 58.351,340 		"/>
		<rect x="61.807" y="340" fill="#1399D6" width="2.359" height="17.914"/>
		<polygon fill="#1399D6" points="76.549,340 76.119,340 75.698,340 74.62,340 74.19,340 73.76,340 73.76,357.914 74.19,357.914 
			74.62,357.914 75.698,357.914 76.119,357.914 76.549,357.914 76.98,357.914 78.057,357.914 78.057,340 76.98,340 		"/>
		<polygon fill="#1399D6" points="81.405,340 80.749,340 79.466,340 78.39,340 78.39,357.914 79.466,357.914 80.749,357.914 
			81.405,357.914 81.825,357.914 83.764,357.914 83.764,340 81.825,340 		"/>
		<rect x="84.097" y="340" fill="#1399D6" width="2.359" height="17.914"/>
		<rect x="90.127" y="340" fill="#1399D6" width="2.359" height="17.914"/>
		<polygon fill="#1399D6" points="99.818,340 99.378,340 99.163,340 98.839,340 98.409,340 98.311,340 98.302,340 97.44,340 
			97.019,340 96.803,340 96.48,340 96.05,340 95.942,340 95.081,340 95.081,357.914 95.942,357.914 96.05,357.914 96.48,357.914 
			96.803,357.914 97.019,357.914 97.44,357.914 98.302,357.914 98.311,357.914 98.409,357.914 98.839,357.914 99.163,357.914 
			99.378,357.914 99.818,357.914 100.67,357.914 102.178,357.914 102.178,340 100.67,340 		"/>
		<rect x="109.833" y="340" fill="#1399D6" width="2.36" height="17.914"/>
		<rect x="123.832" y="340" fill="#1399D6" width="2.359" height="17.914"/>
		<rect x="138.046" y="340" fill="#1399D6" width="2.36" height="17.914"/>
		<rect x="153.014" y="340" fill="#1399D6" width="2.359" height="17.914"/>
		<polygon fill="#1399D6" points="160.66,340 159.583,340 159.583,357.914 160.66,357.914 161.942,357.914 163.019,357.914 
			163.019,340 161.942,340 		"/>
		<rect x="238.837" y="340" fill="#1399D6" width="2.36" height="17.914"/>
		<rect x="243.898" y="340" fill="#1399D6" width="2.36" height="17.914"/>
	</g>
	<g>
		<rect x="53.838" y="448" fill="#87BC58" width="2.359" height="17.965"/>
		<polygon fill="#87BC58" points="98.409,448 98.302,448 97.45,448 96.912,448 96.05,448 95.942,448 95.942,465.965 96.05,465.965 
			96.912,465.965 97.45,465.965 98.302,465.965 98.409,465.965 99.271,465.965 99.809,465.965 99.809,448 99.271,448 		"/>
		<rect x="103.911" y="448" fill="#87BC58" width="2.359" height="17.965"/>
		<polygon fill="#87BC58" points="149.137,448 147.728,448 147.523,448 145.369,448 145.369,465.965 147.523,465.965 
			147.728,465.965 149.137,465.965 149.882,465.965 151.497,465.965 151.497,448 149.882,448 		"/>
		<polygon fill="#87BC58" points="158.927,448 158.281,448 157.958,448 157.106,448 156.891,448 156.568,448 155.922,448 
			155.599,448 155.599,465.965 155.922,465.965 156.568,465.965 156.891,465.965 157.106,465.965 157.958,465.965 158.281,465.965 
			158.927,465.965 159.25,465.965 159.465,465.965 159.465,448 159.25,448 		"/>
		<polygon fill="#87BC58" points="209.323,448 207.394,448 207.286,448 206.964,448 206.964,465.965 207.286,465.965 
			207.394,465.965 209.323,465.965 209.646,465.965 209.753,465.965 209.753,448 209.646,448 		"/>
		<polygon fill="#87BC58" points="85.379,448 83.871,448 83.764,448 83.343,448 83.128,448 83.02,448 82.149,448 81.825,448 
			81.512,448 81.405,448 80.856,448 80.749,448 79.887,448 79.79,448 79.466,448 78.497,448 78.39,448 78.165,448 78.057,448 
			77.528,448 76.98,448 75.806,448 75.698,448 75.365,448 75.042,448 74.62,448 73.006,448 72.683,448 72.683,465.965 
			73.006,465.965 74.62,465.965 75.042,465.965 75.365,465.965 75.698,465.965 75.806,465.965 76.98,465.965 77.528,465.965 
			78.057,465.965 78.165,465.965 78.39,465.965 78.497,465.965 79.466,465.965 79.79,465.965 79.887,465.965 80.749,465.965 
			80.856,465.965 81.405,465.965 81.512,465.965 81.825,465.965 82.149,465.965 83.02,465.965 83.128,465.965 83.343,465.965 
			83.764,465.965 83.871,465.965 85.379,465.965 85.487,465.965 85.702,465.965 85.702,448 85.487,448 		"/>
		<polygon fill="#87BC58" points="241.089,448 239.161,448 238.837,448 238.73,448 238.73,465.965 238.837,465.965 239.161,465.965 
			241.089,465.965 241.197,465.965 241.52,465.965 241.52,448 241.197,448 		"/>
		<polygon fill="#87BC58" points="246.15,448 246.042,448 244.007,448 243.791,448 243.683,448 243.683,465.965 243.791,465.965 
			244.007,465.965 246.042,465.965 246.15,465.965 246.366,465.965 246.366,448 		"/>
	</g>
	<g>
		<polygon fill="#838484" points="87.963,376 87.856,376 87.748,376 86.995,376 86.349,376 86.143,376 86.026,376 85.712,376 
			85.604,376 85.497,376 85.389,376 85.057,376 84.733,376 84.635,376 83.989,376 83.764,376 83.666,376 82.697,376 82.374,376 
			81.825,376 81.405,376 80.749,376 79.466,376 78.918,376 78.595,376 78.39,376 78.057,376 76.98,376 76.559,376 76.236,376 
			76.119,376 75.698,376 75.042,376 74.62,376 74.288,376 73.76,376 73.749,376 72.683,376 71.929,376 71.39,376 71.39,394 
			71.929,394 72.683,394 73.749,394 73.76,394 74.288,394 74.62,394 75.042,394 75.698,394 76.119,394 76.236,394 76.559,394 
			76.98,394 78.057,394 78.39,394 78.595,394 78.918,394 79.466,394 80.749,394 81.405,394 81.825,394 82.374,394 82.697,394 
			83.666,394 83.764,394 83.989,394 84.635,394 84.733,394 85.057,394 85.389,394 85.497,394 85.604,394 85.712,394 86.026,394 
			86.143,394 86.349,394 86.995,394 87.748,394 87.856,394 87.963,394 88.072,394 88.502,394 88.502,376 88.072,376 		"/>
		<polygon fill="#838484" points="90.235,376 90.02,376 90.02,394 90.235,394 92.379,394 92.594,394 92.594,376 92.379,376 		"/>
		<polygon fill="#838484" points="100.885,376 100.348,376 100.132,376 99.818,376 99.809,376 99.711,376 99.271,376 98.526,376 
			98.302,376 97.988,376 97.772,376 97.45,376 96.912,376 95.942,376 95.942,394 96.912,394 97.45,394 97.772,394 97.988,394 
			98.302,394 98.526,394 99.271,394 99.711,394 99.809,394 99.818,394 100.132,394 100.348,394 100.885,394 102.07,394 102.178,394 
			102.178,376 102.07,376 		"/>
		<polygon fill="#838484" points="118.331,376 118.223,376 118.115,376 117.264,376 117.145,376 116.94,376 115.972,376 
			115.863,376 115.756,376 114.786,376 114.786,394 115.756,394 115.863,394 115.972,394 116.94,394 117.145,394 117.264,394 
			118.115,394 118.223,394 118.331,394 119.3,394 119.623,394 119.623,376 119.3,376 		"/>
		<polygon fill="#838484" points="148.492,376 148.168,376 148.168,394 148.492,394 150.528,394 150.851,394 150.851,376 
			150.528,376 		"/>
		<polygon fill="#838484" points="153.014,376 152.906,376 152.906,394 153.014,394 155.265,394 155.373,394 155.373,376 
			155.265,376 		"/>
		<rect x="194.257" y="376" fill="#838484" width="2.359" height="18"/>
		<polygon fill="#838484" points="266.405,376 266.395,376 265.974,376 265.856,376 264.349,376 264.035,376 263.918,376 
			263.497,376 261.989,376 261.559,376 261.559,394 261.989,394 263.497,394 263.918,394 264.035,394 264.349,394 265.856,394 
			265.974,394 266.395,394 266.405,394 268.333,394 268.764,394 268.764,376 268.333,376 		"/>
		<polygon fill="#838484" points="46.731,376 46.192,376 46.192,394 46.731,394 48.551,394 49.09,394 49.09,376 48.551,376 		"/>
		<rect x="49.531" y="376" fill="#838484" width="2.359" height="18"/>
		<polygon fill="#838484" points="63.519,376 63.412,376 63.304,376 63.089,376 62.981,376 62.874,376 62.658,376 62.452,376 
			62.012,376 61.807,376 61.16,376 61.053,376 60.945,376 60.936,376 60.73,376 60.622,376 60.514,376 60.299,376 59.653,376 
			58.997,376 58.576,376 58.566,376 57.92,376 57.813,376 57.704,376 57.597,376 57.274,376 57.166,376 56.638,376 56.207,376 
			56.197,376 55.561,376 55.453,376 55.443,376 55.345,376 55.238,376 54.915,376 54.807,376 54.798,376 54.689,376 53.838,376 
			53.084,376 52.438,376 52.33,376 52.33,394 52.438,394 53.084,394 53.838,394 54.689,394 54.798,394 54.807,394 54.915,394 
			55.238,394 55.345,394 55.443,394 55.453,394 55.561,394 56.197,394 56.207,394 56.638,394 57.166,394 57.274,394 57.597,394 
			57.704,394 57.813,394 57.92,394 58.566,394 58.576,394 58.997,394 59.653,394 60.299,394 60.514,394 60.622,394 60.73,394 
			60.936,394 60.945,394 61.053,394 61.16,394 61.807,394 62.012,394 62.452,394 62.658,394 62.874,394 62.981,394 63.089,394 
			63.304,394 63.412,394 63.519,394 64.166,394 64.811,394 64.811,376 64.166,376 		"/>
		<polygon fill="#838484" points="70.95,376 70.842,376 70.734,376 70.626,376 70.519,376 70.304,376 69.981,376 69.442,376 
			69.227,376 68.806,376 68.699,376 68.59,376 68.483,376 68.473,376 68.375,376 68.365,376 68.267,376 68.16,376 68.15,376 
			67.945,376 67.622,376 67.083,376 66.868,376 66.114,376 66.006,376 65.791,376 65.791,394 66.006,394 66.114,394 66.868,394 
			67.083,394 67.622,394 67.945,394 68.15,394 68.16,394 68.267,394 68.365,394 68.375,394 68.473,394 68.483,394 68.59,394 
			68.699,394 68.806,394 69.227,394 69.442,394 69.981,394 70.304,394 70.519,394 70.626,394 70.734,394 70.842,394 70.95,394 
			71.058,394 71.165,394 71.165,376 71.058,376 		"/>
		<polygon fill="#838484" points="228.706,376 228.49,376 228.383,376 228.275,376 227.414,376 227.306,376 226.669,376 
			226.454,376 226.346,376 226.131,376 226.024,376 225.916,376 225.055,376 224.947,376 224.947,394 225.055,394 225.916,394 
			226.024,394 226.131,394 226.346,394 226.454,394 226.669,394 227.306,394 227.414,394 228.275,394 228.383,394 228.49,394 
			228.706,394 228.813,394 229.028,394 229.028,376 228.813,376 		"/>
		<polygon fill="#838484" points="256.381,376 256.165,376 255.734,376 254.559,376 254.452,376 254.442,376 254.335,376 
			254.119,376 254.021,376 253.903,376 253.805,376 253.688,376 253.581,376 253.375,376 253.149,376 252.827,376 252.083,376 
			252.073,376 251.975,376 251.857,376 251.759,376 251.544,376 251.535,376 251.329,376 251.222,376 251.211,376 251.103,376 
			250.79,376 250.781,376 250.566,376 250.468,376 250.458,376 250.35,376 250.134,376 250.027,376 249.812,376 249.714,376 
			249.704,376 249.498,376 249.176,376 248.852,376 248.744,376 248.422,376 248.206,376 248.099,376 247.991,376 247.775,376 
			247.668,376 247.452,376 247.345,376 247.345,394 247.452,394 247.668,394 247.775,394 247.991,394 248.099,394 248.206,394 
			248.422,394 248.744,394 248.852,394 249.176,394 249.498,394 249.704,394 249.714,394 249.812,394 250.027,394 250.134,394 
			250.35,394 250.458,394 250.468,394 250.566,394 250.781,394 250.79,394 251.103,394 251.211,394 251.222,394 251.329,394 
			251.535,394 251.544,394 251.759,394 251.857,394 251.975,394 252.073,394 252.083,394 252.827,394 253.149,394 253.375,394 
			253.581,394 253.688,394 253.805,394 253.903,394 254.021,394 254.119,394 254.335,394 254.442,394 254.452,394 254.559,394 
			255.734,394 256.165,394 256.381,394 256.811,394 256.919,394 256.919,376 256.811,376 		"/>
		<rect x="124.048" y="376" fill="#838484" width="2.359" height="18"/>
		<polygon fill="#838484" points="140.406,376 140.19,376 139.769,376 139.113,376 138.154,376 138.046,376 137.831,376 
			136.754,376 136.754,394 137.831,394 138.046,394 138.154,394 139.113,394 139.769,394 140.19,394 140.406,394 140.513,394 
			142.128,394 142.128,376 140.513,376 		"/>
		<polygon fill="#838484" points="112.193,376 112.084,376 110.802,376 110.157,376 109.833,376 109.725,376 109.725,394 
			109.833,394 110.157,394 110.802,394 112.084,394 112.193,394 112.516,394 113.161,394 113.161,376 112.516,376 		"/>
		<rect x="133.308" y="376" fill="#838484" width="2.359" height="18"/>
		<polygon fill="#838484" points="191.232,376 191.026,376 191.017,376 190.802,376 189.196,376 188.873,376 188.658,376 
			188.54,376 188.442,376 188.432,376 188.217,376 187.786,376 187.678,376 186.817,376 186.18,376 186.073,376 185.956,376 
			185.858,376 185.741,376 185.426,376 185.417,376 185.319,376 185.309,376 185.202,376 185.094,376 184.457,376 184.34,376 
			184.232,376 183.91,376 183.597,376 183.38,376 183.058,376 182.95,376 182.843,376 182.735,376 182.187,376 181.981,376 
			181.971,376 181.873,376 181.864,376 181.756,376 181.551,376 181.217,376 180.895,376 180.463,376 179.925,376 179.827,376 
			179.612,376 179.602,376 179.505,376 179.396,376 178.858,376 178.633,376 178.536,376 178.525,376 178.417,376 178.104,376 
			177.566,376 177.448,376 177.243,376 176.91,376 176.587,376 176.479,376 176.273,376 176.166,376 176.156,376 176.058,376 
			176.049,376 175.834,376 175.617,376 175.51,376 175.089,376 174.551,376 174.228,376 174.218,376 174.12,376 173.797,376 
			173.69,376 173.571,376 173.474,376 173.258,376 173.151,376 172.926,376 171.859,376 171.849,376 171.212,376 171.203,376 
			170.567,376 170.234,376 169.49,376 169.372,376 168.844,376 167.874,376 167.541,376 167.434,376 167.013,376 165.927,376 
			165.819,376 165.711,376 165.182,376 165.075,376 164.526,376 163.567,376 163.46,376 163.352,376 162.167,376 162.167,394 
			163.352,394 163.46,394 163.567,394 164.526,394 165.075,394 165.182,394 165.711,394 165.819,394 165.927,394 167.013,394 
			167.434,394 167.541,394 167.874,394 168.844,394 169.372,394 169.49,394 170.234,394 170.567,394 171.203,394 171.212,394 
			171.849,394 171.859,394 172.926,394 173.151,394 173.258,394 173.474,394 173.571,394 173.69,394 173.797,394 174.12,394 
			174.218,394 174.228,394 174.551,394 175.089,394 175.51,394 175.617,394 175.834,394 176.049,394 176.058,394 176.156,394 
			176.166,394 176.273,394 176.479,394 176.587,394 176.91,394 177.243,394 177.448,394 177.566,394 178.104,394 178.417,394 
			178.525,394 178.536,394 178.633,394 178.858,394 179.396,394 179.505,394 179.602,394 179.612,394 179.827,394 179.925,394 
			180.463,394 180.895,394 181.217,394 181.551,394 181.756,394 181.864,394 181.873,394 181.971,394 181.981,394 182.187,394 
			182.735,394 182.843,394 182.95,394 183.058,394 183.38,394 183.597,394 183.91,394 184.232,394 184.34,394 184.457,394 
			185.094,394 185.202,394 185.309,394 185.319,394 185.417,394 185.426,394 185.741,394 185.858,394 185.956,394 186.073,394 
			186.18,394 186.817,394 187.678,394 187.786,394 188.217,394 188.432,394 188.442,394 188.54,394 188.658,394 188.873,394 
			189.196,394 190.802,394 191.017,394 191.026,394 191.232,394 191.555,394 193.385,394 193.385,376 191.555,376 		"/>
		<polygon fill="#838484" points="199.749,376 197.487,376 197.487,394 199.749,394 199.847,394 202.108,394 202.108,376 
			199.847,376 		"/>
		<polygon fill="#838484" points="205.016,376 204.908,376 204.477,376 204.271,376 203.195,376 202.657,376 202.548,376 
			202.118,376 202.118,394 202.548,394 202.657,394 203.195,394 204.271,394 204.477,394 204.908,394 205.016,394 205.554,394 
			206.63,394 206.63,376 205.554,376 		"/>
		<polygon fill="#838484" points="232.269,376 232.162,376 232.162,394 232.269,394 234.521,394 234.628,394 234.628,376 
			234.521,376 		"/>
		<polygon fill="#838484" points="243.135,376 241.422,376 241.315,376 241.305,376 240.776,376 239.797,376 239.151,376 
			238.946,376 238.72,376 237.438,376 237.428,376 236.791,376 236.361,376 235.069,376 235.069,394 236.361,394 236.791,394 
			237.428,394 237.438,394 238.72,394 238.946,394 239.151,394 239.797,394 240.776,394 241.305,394 241.315,394 241.422,394 
			243.135,394 243.674,394 243.781,394 243.781,376 243.674,376 		"/>
		<rect x="269.42" y="376" fill="#838484" width="2.359" height="18"/>
		<polygon fill="#838484" points="106.485,376 106.27,376 104.557,376 104.449,376 104.126,376 103.911,376 103.911,394 
			104.126,394 104.449,394 104.557,394 106.27,394 106.485,394 106.808,394 106.916,394 106.916,376 106.808,376 		"/>
		<polygon fill="#838484" points="259.083,376 257.682,376 257.682,394 259.083,394 260.041,394 261.442,394 261.442,376 
			260.041,376 		"/>
		<polygon fill="#838484" points="223.86,376 223.644,376 223.322,376 222.675,376 222.568,376 222.47,376 222.46,376 222.353,376 
			222.245,376 221.932,376 221.814,376 221.501,376 221.285,376 221.168,376 220.963,376 220.737,376 220.316,376 220.209,376 
			220.101,376 219.993,376 219.886,376 219.553,376 219.455,376 219.015,376 218.809,376 218.691,376 218.583,376 218.476,376 
			218.378,376 218.045,376 217.722,376 217.614,376 217.193,376 216.655,376 216.332,376 216.224,376 216.117,376 215.685,376 
			215.363,376 215.353,376 215.255,376 214.814,376 214.491,376 214.276,376 213.845,376 213.63,376 213.092,376 212.994,376 
			212.553,376 212.455,376 212.132,376 211.917,376 211.584,376 211.486,376 211.369,376 211.271,376 210.733,376 210.722,376 
			210.507,376 210.4,376 210.194,376 210.184,376 209.969,376 209.538,376 209.323,376 209.225,376 209.01,376 208.363,376 
			208.148,376 208.04,376 207.825,376 207.609,376 207.179,376 206.964,376 206.964,394 207.179,394 207.609,394 207.825,394 
			208.04,394 208.148,394 208.363,394 209.01,394 209.225,394 209.323,394 209.538,394 209.969,394 210.184,394 210.194,394 
			210.4,394 210.507,394 210.722,394 210.733,394 211.271,394 211.369,394 211.486,394 211.584,394 211.917,394 212.132,394 
			212.455,394 212.553,394 212.994,394 213.092,394 213.63,394 213.845,394 214.276,394 214.491,394 214.814,394 215.255,394 
			215.353,394 215.363,394 215.685,394 216.117,394 216.224,394 216.332,394 216.655,394 217.193,394 217.614,394 217.722,394 
			218.045,394 218.378,394 218.476,394 218.583,394 218.691,394 218.809,394 219.015,394 219.455,394 219.553,394 219.886,394 
			219.993,394 220.101,394 220.209,394 220.316,394 220.737,394 220.963,394 221.168,394 221.285,394 221.501,394 221.814,394 
			221.932,394 222.245,394 222.353,394 222.46,394 222.47,394 222.568,394 222.675,394 223.322,394 223.644,394 223.86,394 
			224.291,394 224.829,394 224.829,376 224.291,376 		"/>
		<polygon fill="#838484" points="244.76,376 243.898,376 243.898,394 244.76,394 246.258,394 247.119,394 247.119,376 246.258,376 
					"/>
	</g>
	<g>
		<polygon fill="#EF8F03" points="57.382,484 57.059,484 55.884,484 55.874,484 55.453,484 55.022,484 54.7,484 53.515,484 
			53.515,502 54.7,502 55.022,502 55.453,502 55.874,502 55.884,502 57.059,502 57.382,502 57.813,502 58.243,502 58.243,484 
			57.813,484 		"/>
		<rect x="104.341" y="484" fill="#EF8F03" width="2.359" height="18"/>
		<polygon fill="#EF8F03" points="236.469,484 236.136,484 235.177,484 233.776,484 233.776,502 235.177,502 236.136,502 
			236.469,502 237.536,502 238.828,502 238.828,484 237.536,484 		"/>
		<polygon fill="#EF8F03" points="267.148,484 266.405,484 266.179,484 265.318,484 264.995,484 264.897,484 264.789,484 
			264.564,484 264.349,484 264.026,484 263.918,484 263.82,484 262.958,484 262.636,484 262.205,484 261.989,484 261.667,484 
			261.559,484 261.559,502 261.667,502 261.989,502 262.205,502 262.636,502 262.958,502 263.82,502 263.918,502 264.026,502 
			264.349,502 264.564,502 264.789,502 264.897,502 264.995,502 265.318,502 266.179,502 266.405,502 267.148,502 267.256,502 
			268.764,502 268.764,484 267.256,484 		"/>
		<polygon fill="#EF8F03" points="273.825,484 273.61,484 272.543,484 272.533,484 271.466,484 271.251,484 270.174,484 
			270.174,502 271.251,502 271.466,502 272.533,502 272.543,502 273.61,502 273.825,502 274.902,502 274.902,484 		"/>
		<rect x="47.054" y="484" fill="#EF8F03" width="2.359" height="18"/>
		<polygon fill="#EF8F03" points="223.322,484 222.577,484 222.46,484 222.039,484 222.03,484 220.963,484 220.952,484 220.101,484 
			219.984,484 219.67,484 218.799,484 218.593,484 217.937,484 217.624,484 216.439,484 215.676,484 215.578,484 214.922,484 
			214.599,484 214.276,484 214.061,484 213.954,484 213.737,484 213.317,484 213.2,484 212.563,484 212.553,484 212.24,484 
			211.917,484 211.702,484 211.594,484 211.378,484 211.261,484 210.84,484 210.615,484 210.507,484 210.194,484 210.184,484 
			210.077,484 208.902,484 208.256,484 208.148,484 207.923,484 207.825,484 207.718,484 205.563,484 205.563,502 207.718,502 
			207.825,502 207.923,502 208.148,502 208.256,502 208.902,502 210.077,502 210.184,502 210.194,502 210.507,502 210.615,502 
			210.84,502 211.261,502 211.378,502 211.594,502 211.702,502 211.917,502 212.24,502 212.553,502 212.563,502 213.2,502 
			213.317,502 213.737,502 213.954,502 214.061,502 214.276,502 214.599,502 214.922,502 215.578,502 215.676,502 216.439,502 
			217.624,502 217.937,502 218.593,502 218.799,502 219.67,502 219.984,502 220.101,502 220.952,502 220.963,502 222.03,502 
			222.039,502 222.46,502 222.577,502 223.322,502 224.398,502 224.936,502 224.936,484 224.398,484 		"/>
		<rect x="225.27" y="484" fill="#EF8F03" width="2.359" height="18"/>
		<polygon fill="#EF8F03" points="249.704,484 248.422,484 247.775,484 247.345,484 247.345,502 247.775,502 248.422,502 
			249.704,502 250.134,502 250.781,502 250.781,484 250.134,484 		"/>
		<polygon fill="#EF8F03" points="90.881,484 90.01,484 89.805,484 88.395,484 88.072,484 87.856,484 87.65,484 86.671,484 
			86.349,484 86.035,484 86.026,484 85.917,484 85.81,484 85.712,484 85.702,484 85.497,484 85.272,484 85.057,484 84.518,484 
			84.312,484 83.989,484 83.98,484 83.871,484 83.666,484 83.656,484 83.558,484 83.451,484 83.343,484 82.913,484 82.697,484 
			82.257,484 82.159,484 82.149,484 81.825,484 81.718,484 81.62,484 81.512,484 81.297,484 81.18,484 80.749,484 80.641,484 
			79.898,484 79.887,484 79.79,484 79.779,484 79.672,484 79.564,484 79.466,484 79.457,484 79.359,484 79.026,484 78.918,484 
			78.821,484 78.81,484 78.39,484 78.38,484 78.282,484 78.165,484 78.057,484 77.528,484 77.42,484 77.313,484 77.205,484 
			77.196,484 77.098,484 77.088,484 76.98,484 76.666,484 76.559,484 76.451,484 76.021,484 75.806,484 75.698,484 75.688,484 
			75.472,484 75.365,484 75.257,484 75.15,484 75.042,484 74.836,484 74.729,484 74.62,484 73.328,484 73.113,484 73.006,484 
			72.898,484 72.791,484 72.683,484 72.683,502 72.791,502 72.898,502 73.006,502 73.113,502 73.328,502 74.62,502 74.729,502 
			74.836,502 75.042,502 75.15,502 75.257,502 75.365,502 75.472,502 75.688,502 75.698,502 75.806,502 76.021,502 76.451,502 
			76.559,502 76.666,502 76.98,502 77.088,502 77.098,502 77.196,502 77.205,502 77.313,502 77.42,502 77.528,502 78.057,502 
			78.165,502 78.282,502 78.38,502 78.39,502 78.81,502 78.821,502 78.918,502 79.026,502 79.359,502 79.457,502 79.466,502 
			79.564,502 79.672,502 79.779,502 79.79,502 79.887,502 79.898,502 80.641,502 80.749,502 81.18,502 81.297,502 81.512,502 
			81.62,502 81.718,502 81.825,502 82.149,502 82.159,502 82.257,502 82.697,502 82.913,502 83.343,502 83.451,502 83.558,502 
			83.656,502 83.666,502 83.871,502 83.98,502 83.989,502 84.312,502 84.518,502 85.057,502 85.272,502 85.497,502 85.702,502 
			85.712,502 85.81,502 85.917,502 86.026,502 86.035,502 86.349,502 86.671,502 87.65,502 87.856,502 88.072,502 88.395,502 
			89.805,502 90.01,502 90.881,502 92.164,502 93.24,502 93.24,484 92.164,484 		"/>
		<polygon fill="#EF8F03" points="101.102,484 100.67,484 99.378,484 99.271,484 99.163,484 98.958,484 98.85,484 98.839,484 
			98.741,484 98.624,484 98.311,484 98.302,484 98.086,484 97.019,484 96.912,484 96.803,484 96.48,484 96.265,484 95.942,484 
			95.726,484 95.726,502 95.942,502 96.265,502 96.48,502 96.803,502 96.912,502 97.019,502 98.086,502 98.302,502 98.311,502 
			98.624,502 98.741,502 98.839,502 98.85,502 98.958,502 99.163,502 99.271,502 99.378,502 100.67,502 101.102,502 101.209,502 
			101.317,502 101.317,484 101.209,484 		"/>
		<polygon fill="#EF8F03" points="151.82,484 151.066,484 150.42,484 150.323,484 149.676,484 149.461,484 148.707,484 148.158,484 
			148.06,484 147.728,484 145.799,484 145.369,484 145.369,502 145.799,502 147.728,502 148.06,502 148.158,502 148.707,502 
			149.461,502 149.676,502 150.323,502 150.42,502 151.066,502 151.82,502 152.035,502 152.682,502 152.682,484 152.035,484 		"/>
		<polygon fill="#EF8F03" points="139.769,484 137.831,484 137.831,502 139.769,502 140.19,502 142.128,502 142.128,484 140.19,484 
					"/>
		<polygon fill="#EF8F03" points="162.589,484 161.942,484 161.511,484 161.09,484 160.973,484 160.767,484 160.229,484 
			159.583,484 159.25,484 159.152,484 158.614,484 158.281,484 158.173,484 158.065,484 157.635,484 157.096,484 156.891,484 
			156.019,484 155.922,484 155.814,484 155.706,484 155.481,484 155.276,484 154.737,484 153.66,484 153.122,484 153.122,502 
			153.66,502 154.737,502 155.276,502 155.481,502 155.706,502 155.814,502 155.922,502 156.019,502 156.891,502 157.096,502 
			157.635,502 158.065,502 158.173,502 158.281,502 158.614,502 159.152,502 159.25,502 159.583,502 160.229,502 160.767,502 
			160.973,502 161.09,502 161.511,502 161.942,502 162.589,502 163.127,502 163.449,502 163.449,484 163.127,484 		"/>
		<polygon fill="#EF8F03" points="181.325,484 181.11,484 181.012,484 180.033,484 179.279,484 179.181,484 178.966,484 
			178.751,484 178.741,484 177.674,484 177.125,484 176.92,484 176.695,484 176.381,484 176.264,484 175.726,484 174.972,484 
			174.766,484 174.335,484 174.11,484 173.905,484 173.366,484 172.818,484 172.613,484 172.495,484 171.751,484 170.665,484 
			170.459,484 170.136,484 169.696,484 169.372,484 168.305,484 167.865,484 167.336,484 167.013,484 166.357,484 165.819,484 
			165.506,484 163.998,484 163.46,484 163.46,502 163.998,502 165.506,502 165.819,502 166.357,502 167.013,502 167.336,502 
			167.865,502 168.305,502 169.372,502 169.696,502 170.136,502 170.459,502 170.665,502 171.751,502 172.495,502 172.613,502 
			172.818,502 173.366,502 173.905,502 174.11,502 174.335,502 174.766,502 174.972,502 175.726,502 176.264,502 176.381,502 
			176.695,502 176.92,502 177.125,502 177.674,502 178.741,502 178.751,502 178.966,502 179.181,502 179.279,502 180.033,502 
			181.012,502 181.11,502 181.325,502 181.54,502 183.371,502 183.371,484 181.54,484 		"/>
		<polygon fill="#EF8F03" points="191.026,484 188.873,484 188.873,502 191.026,502 191.232,502 193.385,502 193.385,484 
			191.232,484 		"/>
		<polygon fill="#EF8F03" points="241.413,484 241.315,484 241.305,484 241.197,484 239.376,484 239.053,484 238.946,484 
			238.837,484 238.837,502 238.946,502 239.053,502 239.376,502 241.197,502 241.305,502 241.315,502 241.413,502 241.735,502 
			243.674,502 243.674,484 241.735,484 		"/>
		<polygon fill="#EF8F03" points="246.15,484 246.042,484 244.115,484 244.007,484 243.791,484 243.683,484 243.683,502 
			243.791,502 244.007,502 244.115,502 246.042,502 246.15,502 246.366,502 246.474,502 246.474,484 246.366,484 		"/>
		<polygon fill="#EF8F03" points="260.041,484 259.19,484 259.083,484 258.21,484 257.682,484 256.811,484 256.273,484 256.165,484 
			256.057,484 255.851,484 255.519,484 254.657,484 254.452,484 254.442,484 254.335,484 253.913,484 253.805,484 253.796,484 
			253.698,484 253.16,484 252.298,484 252.083,484 251.975,484 251.437,484 251.437,502 251.975,502 252.083,502 252.298,502 
			253.16,502 253.698,502 253.796,502 253.805,502 253.913,502 254.335,502 254.442,502 254.452,502 254.657,502 255.519,502 
			255.851,502 256.057,502 256.165,502 256.273,502 256.811,502 257.682,502 258.21,502 259.083,502 259.19,502 260.041,502 
			261.442,502 261.549,502 261.549,484 261.442,484 		"/>
	</g>
	<g>
		<polygon fill="#E20E7E" points="257.134,304.848 257.026,304.848 256.811,304.848 256.596,304.848 256.381,304.848 
			256.273,304.848 255.842,304.848 255.519,304.848 255.421,304.848 254.882,304.848 254.775,304.848 254.667,304.848 
			254.452,304.848 254.335,304.848 254.237,304.848 254.021,304.848 253.913,304.848 253.688,304.848 253.483,304.848 
			253.16,304.848 251.975,304.848 251.965,304.848 251.857,304.848 251.535,304.848 251.427,304.848 251.329,304.848 
			251.103,304.848 250.781,304.848 249.919,304.848 249.704,304.848 249.606,304.848 249.498,304.848 249.176,304.848 
			249.068,304.848 248.744,304.848 248.422,304.848 247.56,304.848 247.345,304.848 247.345,321.864 247.56,321.864 
			248.422,321.864 248.744,321.864 249.068,321.864 249.176,321.864 249.498,321.864 249.606,321.864 249.704,321.864 
			249.919,321.864 250.781,321.864 251.103,321.864 251.329,321.864 251.427,321.864 251.535,321.864 251.857,321.864 
			251.965,321.864 251.975,321.864 253.16,321.864 253.483,321.864 253.688,321.864 253.913,321.864 254.021,321.864 
			254.237,321.864 254.335,321.864 254.452,321.864 254.667,321.864 254.775,321.864 254.882,321.864 255.421,321.864 
			255.519,321.864 255.842,321.864 256.273,321.864 256.381,321.864 256.596,321.864 256.811,321.864 257.026,321.864 
			257.134,321.864 257.241,321.864 257.78,321.864 257.78,304.848 257.241,304.848 		"/>
		<polygon fill="#E20E7E" points="58.566,304.848 58.136,304.848 58.028,304.848 57.92,304.848 57.813,304.848 57.704,304.848 
			57.597,304.848 57.166,304.848 56.951,304.848 56.422,304.848 56.412,304.848 56.314,304.848 56.207,304.848 55.982,304.848 
			55.776,304.848 55.669,304.848 55.561,304.848 55.453,304.848 55.443,304.848 55.345,304.848 55.238,304.848 55.228,304.848 
			54.905,304.848 54.807,304.848 54.592,304.848 54.053,304.848 53.623,304.848 53.084,304.848 52.869,304.848 52.752,304.848 
			52.546,304.848 52.428,304.848 50.392,304.848 50.069,304.848 50.069,321.864 50.392,321.864 52.428,321.864 52.546,321.864 
			52.752,321.864 52.869,321.864 53.084,321.864 53.623,321.864 54.053,321.864 54.592,321.864 54.807,321.864 54.905,321.864 
			55.228,321.864 55.238,321.864 55.345,321.864 55.443,321.864 55.453,321.864 55.561,321.864 55.669,321.864 55.776,321.864 
			55.982,321.864 56.207,321.864 56.314,321.864 56.412,321.864 56.422,321.864 56.951,321.864 57.166,321.864 57.597,321.864 
			57.704,321.864 57.813,321.864 57.92,321.864 58.028,321.864 58.136,321.864 58.566,321.864 58.673,321.864 58.782,321.864 
			58.782,304.848 58.673,304.848 		"/>
		<polygon fill="#E20E7E" points="140.406,304.848 139.877,304.848 139.437,304.848 139.328,304.848 139.113,304.848 
			138.154,304.848 138.046,304.848 137.077,304.848 136.969,304.848 136.754,304.848 136.754,321.864 136.969,321.864 
			137.077,321.864 138.046,321.864 138.154,321.864 139.113,321.864 139.328,321.864 139.437,321.864 139.877,321.864 
			140.406,321.864 140.513,321.864 142.236,321.864 142.236,304.848 140.513,304.848 		"/>
		<polygon fill="#E20E7E" points="234.628,304.848 234.521,304.848 234.315,304.848 233.885,304.848 232.269,304.848 
			232.162,304.848 232.162,321.864 232.269,321.864 233.885,321.864 234.315,321.864 234.521,321.864 234.628,321.864 
			236.244,321.864 236.674,321.864 236.674,304.848 236.244,304.848 		"/>
		<polygon fill="#E20E7E" points="272.317,304.848 271.887,304.848 271.779,304.848 270.819,304.848 269.958,304.848 
			269.528,304.848 269.42,304.848 269.42,321.864 269.528,321.864 269.958,321.864 270.819,321.864 271.779,321.864 
			271.887,321.864 272.317,321.864 273.179,321.864 273.179,304.848 		"/>
		<polygon fill="#E20E7E" points="188.002,304.848 186.925,304.848 186.709,304.848 186.073,304.848 185.956,304.848 
			185.848,304.848 185.75,304.848 185.741,304.848 185.643,304.848 185.632,304.848 185.524,304.848 185.417,304.848 
			185.309,304.848 185.202,304.848 185.094,304.848 184.987,304.848 184.879,304.848 184.566,304.848 184.35,304.848 
			184.34,304.848 183.694,304.848 183.597,304.848 183.586,304.848 183.489,304.848 183.38,304.848 183.371,304.848 
			183.273,304.848 183.165,304.848 183.156,304.848 183.058,304.848 182.95,304.848 182.941,304.848 182.843,304.848 
			182.735,304.848 182.725,304.848 182.627,304.848 182.617,304.848 182.52,304.848 182.294,304.848 182.187,304.848 
			181.981,304.848 181.971,304.848 181.648,304.848 181.54,304.848 181.433,304.848 181.335,304.848 181.325,304.848 
			181.227,304.848 181.217,304.848 181.11,304.848 181.012,304.848 181.002,304.848 180.895,304.848 180.797,304.848 
			180.787,304.848 180.678,304.848 180.581,304.848 180.571,304.848 180.463,304.848 180.365,304.848 180.356,304.848 
			180.258,304.848 180.248,304.848 180.141,304.848 180.033,304.848 179.935,304.848 179.925,304.848 179.827,304.848 
			179.818,304.848 179.71,304.848 179.612,304.848 179.602,304.848 179.387,304.848 179.289,304.848 179.279,304.848 
			179.181,304.848 179.171,304.848 179.073,304.848 179.064,304.848 178.966,304.848 178.956,304.848 178.858,304.848 
			178.849,304.848 178.751,304.848 178.741,304.848 178.643,304.848 178.633,304.848 178.536,304.848 178.525,304.848 
			178.427,304.848 178.417,304.848 178.319,304.848 178.31,304.848 178.212,304.848 178.202,304.848 178.104,304.848 
			178.095,304.848 177.997,304.848 177.987,304.848 177.889,304.848 177.879,304.848 177.782,304.848 177.772,304.848 
			177.674,304.848 177.663,304.848 177.566,304.848 177.556,304.848 177.459,304.848 177.448,304.848 177.35,304.848 
			177.341,304.848 177.243,304.848 177.233,304.848 177.125,304.848 177.027,304.848 177.018,304.848 176.92,304.848 
			176.812,304.848 176.803,304.848 176.705,304.848 176.695,304.848 176.597,304.848 176.587,304.848 176.49,304.848 
			176.479,304.848 176.381,304.848 176.273,304.848 176.264,304.848 176.166,304.848 176.156,304.848 176.058,304.848 
			176.049,304.848 175.951,304.848 175.941,304.848 175.843,304.848 175.736,304.848 175.726,304.848 175.628,304.848 
			175.617,304.848 175.52,304.848 175.51,304.848 175.413,304.848 175.304,304.848 175.197,304.848 175.187,304.848 
			175.089,304.848 175.079,304.848 174.982,304.848 174.972,304.848 174.874,304.848 174.864,304.848 174.766,304.848 
			174.757,304.848 174.659,304.848 174.649,304.848 174.541,304.848 174.444,304.848 174.335,304.848 174.325,304.848 
			174.228,304.848 174.218,304.848 174.12,304.848 173.905,304.848 173.797,304.848 173.788,304.848 173.69,304.848 173.68,304.848 
			173.582,304.848 173.571,304.848 173.366,304.848 173.258,304.848 173.249,304.848 173.151,304.848 173.141,304.848 
			173.034,304.848 172.926,304.848 172.828,304.848 172.818,304.848 172.72,304.848 172.613,304.848 172.602,304.848 
			172.505,304.848 172.398,304.848 172.387,304.848 172.289,304.848 172.28,304.848 172.182,304.848 172.064,304.848 
			171.966,304.848 171.957,304.848 171.859,304.848 171.849,304.848 171.634,304.848 171.428,304.848 171.418,304.848 
			171.32,304.848 171.31,304.848 171.212,304.848 171.095,304.848 170.89,304.848 170.782,304.848 170.772,304.848 170.674,304.848 
			170.567,304.848 170.556,304.848 170.459,304.848 170.341,304.848 170.243,304.848 170.234,304.848 170.126,304.848 
			170.028,304.848 169.92,304.848 169.911,304.848 169.803,304.848 169.705,304.848 169.696,304.848 169.598,304.848 
			169.587,304.848 169.49,304.848 169.48,304.848 169.372,304.848 169.274,304.848 169.059,304.848 168.951,304.848 
			168.834,304.848 168.736,304.848 168.726,304.848 168.619,304.848 168.51,304.848 168.413,304.848 168.403,304.848 
			168.197,304.848 167.982,304.848 167.874,304.848 167.767,304.848 167.757,304.848 167.65,304.848 167.552,304.848 
			167.541,304.848 167.444,304.848 167.434,304.848 167.336,304.848 167.326,304.848 167.228,304.848 167.218,304.848 
			167.12,304.848 167.013,304.848 167.003,304.848 166.896,304.848 166.788,304.848 166.572,304.848 166.475,304.848 
			166.464,304.848 166.367,304.848 166.259,304.848 166.249,304.848 166.151,304.848 166.044,304.848 166.034,304.848 
			165.819,304.848 165.711,304.848 165.604,304.848 165.495,304.848 165.398,304.848 165.388,304.848 165.29,304.848 
			165.182,304.848 165.075,304.848 164.967,304.848 164.957,304.848 164.859,304.848 164.644,304.848 164.537,304.848 
			164.429,304.848 164.418,304.848 164.213,304.848 164.105,304.848 164.096,304.848 163.89,304.848 163.675,304.848 
			163.665,304.848 163.46,304.848 163.352,304.848 163.244,304.848 163.234,304.848 163.136,304.848 163.127,304.848 
			163.029,304.848 162.911,304.848 162.804,304.848 162.696,304.848 162.598,304.848 162.48,304.848 162.059,304.848 
			161.942,304.848 161.737,304.848 161.403,304.848 161.305,304.848 161.081,304.848 160.875,304.848 160.865,304.848 
			160.767,304.848 160.552,304.848 160.445,304.848 160.337,304.848 160.121,304.848 159.896,304.848 159.789,304.848 
			159.583,304.848 159.573,304.848 159.465,304.848 159.25,304.848 159.142,304.848 159.044,304.848 158.927,304.848 
			158.721,304.848 158.506,304.848 158.496,304.848 158.173,304.848 157.958,304.848 157.85,304.848 157.537,304.848 
			157.43,304.848 157.213,304.848 157.204,304.848 157.106,304.848 156.891,304.848 156.783,304.848 156.568,304.848 
			156.137,304.848 155.814,304.848 155.599,304.848 155.491,304.848 155.373,304.848 155.265,304.848 155.158,304.848 
			154.943,304.848 154.845,304.848 153.014,304.848 152.906,304.848 152.799,304.848 152.584,304.848 152.584,321.864 
			152.799,321.864 152.906,321.864 153.014,321.864 154.845,321.864 154.943,321.864 155.158,321.864 155.265,321.864 
			155.373,321.864 155.491,321.864 155.599,321.864 155.814,321.864 156.137,321.864 156.568,321.864 156.783,321.864 
			156.891,321.864 157.106,321.864 157.204,321.864 157.213,321.864 157.43,321.864 157.537,321.864 157.85,321.864 
			157.958,321.864 158.173,321.864 158.496,321.864 158.506,321.864 158.721,321.864 158.927,321.864 159.044,321.864 
			159.142,321.864 159.25,321.864 159.465,321.864 159.573,321.864 159.583,321.864 159.789,321.864 159.896,321.864 
			160.121,321.864 160.337,321.864 160.445,321.864 160.552,321.864 160.767,321.864 160.865,321.864 160.875,321.864 
			161.081,321.864 161.305,321.864 161.403,321.864 161.737,321.864 161.942,321.864 162.059,321.864 162.48,321.864 
			162.598,321.864 162.696,321.864 162.804,321.864 162.911,321.864 163.029,321.864 163.127,321.864 163.136,321.864 
			163.234,321.864 163.244,321.864 163.352,321.864 163.46,321.864 163.665,321.864 163.675,321.864 163.89,321.864 
			164.096,321.864 164.105,321.864 164.213,321.864 164.418,321.864 164.429,321.864 164.537,321.864 164.644,321.864 
			164.859,321.864 164.957,321.864 164.967,321.864 165.075,321.864 165.182,321.864 165.29,321.864 165.388,321.864 
			165.398,321.864 165.495,321.864 165.604,321.864 165.711,321.864 165.819,321.864 166.034,321.864 166.044,321.864 
			166.151,321.864 166.249,321.864 166.259,321.864 166.367,321.864 166.464,321.864 166.475,321.864 166.572,321.864 
			166.788,321.864 166.896,321.864 167.003,321.864 167.013,321.864 167.12,321.864 167.218,321.864 167.228,321.864 
			167.326,321.864 167.336,321.864 167.434,321.864 167.444,321.864 167.541,321.864 167.552,321.864 167.65,321.864 
			167.757,321.864 167.767,321.864 167.874,321.864 167.982,321.864 168.197,321.864 168.403,321.864 168.413,321.864 
			168.51,321.864 168.619,321.864 168.726,321.864 168.736,321.864 168.834,321.864 168.951,321.864 169.059,321.864 
			169.274,321.864 169.372,321.864 169.48,321.864 169.49,321.864 169.587,321.864 169.598,321.864 169.696,321.864 
			169.705,321.864 169.803,321.864 169.911,321.864 169.92,321.864 170.028,321.864 170.126,321.864 170.234,321.864 
			170.243,321.864 170.341,321.864 170.459,321.864 170.556,321.864 170.567,321.864 170.674,321.864 170.772,321.864 
			170.782,321.864 170.89,321.864 171.095,321.864 171.212,321.864 171.31,321.864 171.32,321.864 171.418,321.864 171.428,321.864 
			171.634,321.864 171.849,321.864 171.859,321.864 171.957,321.864 171.966,321.864 172.064,321.864 172.182,321.864 
			172.28,321.864 172.289,321.864 172.387,321.864 172.398,321.864 172.505,321.864 172.602,321.864 172.613,321.864 
			172.72,321.864 172.818,321.864 172.828,321.864 172.926,321.864 173.034,321.864 173.141,321.864 173.151,321.864 
			173.249,321.864 173.258,321.864 173.366,321.864 173.571,321.864 173.582,321.864 173.68,321.864 173.69,321.864 
			173.788,321.864 173.797,321.864 173.905,321.864 174.12,321.864 174.218,321.864 174.228,321.864 174.325,321.864 
			174.335,321.864 174.444,321.864 174.541,321.864 174.649,321.864 174.659,321.864 174.757,321.864 174.766,321.864 
			174.864,321.864 174.874,321.864 174.972,321.864 174.982,321.864 175.079,321.864 175.089,321.864 175.187,321.864 
			175.197,321.864 175.304,321.864 175.413,321.864 175.51,321.864 175.52,321.864 175.617,321.864 175.628,321.864 
			175.726,321.864 175.736,321.864 175.843,321.864 175.941,321.864 175.951,321.864 176.049,321.864 176.058,321.864 
			176.156,321.864 176.166,321.864 176.264,321.864 176.273,321.864 176.381,321.864 176.479,321.864 176.49,321.864 
			176.587,321.864 176.597,321.864 176.695,321.864 176.705,321.864 176.803,321.864 176.812,321.864 176.92,321.864 
			177.018,321.864 177.027,321.864 177.125,321.864 177.233,321.864 177.243,321.864 177.341,321.864 177.35,321.864 
			177.448,321.864 177.459,321.864 177.556,321.864 177.566,321.864 177.663,321.864 177.674,321.864 177.772,321.864 
			177.782,321.864 177.879,321.864 177.889,321.864 177.987,321.864 177.997,321.864 178.095,321.864 178.104,321.864 
			178.202,321.864 178.212,321.864 178.31,321.864 178.319,321.864 178.417,321.864 178.427,321.864 178.525,321.864 
			178.536,321.864 178.633,321.864 178.643,321.864 178.741,321.864 178.751,321.864 178.849,321.864 178.858,321.864 
			178.956,321.864 178.966,321.864 179.064,321.864 179.073,321.864 179.171,321.864 179.181,321.864 179.279,321.864 
			179.289,321.864 179.387,321.864 179.602,321.864 179.612,321.864 179.71,321.864 179.818,321.864 179.827,321.864 
			179.925,321.864 179.935,321.864 180.033,321.864 180.141,321.864 180.248,321.864 180.258,321.864 180.356,321.864 
			180.365,321.864 180.463,321.864 180.571,321.864 180.581,321.864 180.678,321.864 180.787,321.864 180.797,321.864 
			180.895,321.864 181.002,321.864 181.012,321.864 181.11,321.864 181.217,321.864 181.227,321.864 181.325,321.864 
			181.335,321.864 181.433,321.864 181.54,321.864 181.648,321.864 181.971,321.864 181.981,321.864 182.187,321.864 
			182.294,321.864 182.52,321.864 182.617,321.864 182.627,321.864 182.725,321.864 182.735,321.864 182.843,321.864 
			182.941,321.864 182.95,321.864 183.058,321.864 183.156,321.864 183.165,321.864 183.273,321.864 183.371,321.864 
			183.38,321.864 183.489,321.864 183.586,321.864 183.597,321.864 183.694,321.864 184.34,321.864 184.35,321.864 184.566,321.864 
			184.879,321.864 184.987,321.864 185.094,321.864 185.202,321.864 185.309,321.864 185.417,321.864 185.524,321.864 
			185.632,321.864 185.643,321.864 185.741,321.864 185.75,321.864 185.848,321.864 185.956,321.864 186.073,321.864 
			186.709,321.864 186.925,321.864 188.002,321.864 188.109,321.864 188.432,321.864 188.432,304.848 188.109,304.848 		"/>
		<rect x="44.039" y="304.848" fill="#E20E7E" width="2.359" height="17.017"/>
		<polygon fill="#E20E7E" points="222.039,304.848 220.737,304.848 220.101,304.848 218.691,304.848 218.378,304.848 
			217.829,304.848 216.332,304.848 215.568,304.848 215.47,304.848 215.138,304.848 214.922,304.848 214.061,304.848 
			213.954,304.848 213.845,304.848 213.737,304.848 213.522,304.848 213.209,304.848 213.2,304.848 212.779,304.848 
			212.563,304.848 212.338,304.848 211.702,304.848 211.594,304.848 211.486,304.848 211.378,304.848 211.163,304.848 
			210.84,304.848 210.83,304.848 210.615,304.848 210.507,304.848 210.184,304.848 210.077,304.848 209.979,304.848 
			209.969,304.848 209.861,304.848 209.753,304.848 209.646,304.848 209.538,304.848 209.43,304.848 209.323,304.848 
			209.215,304.848 209,304.848 208.471,304.848 208.256,304.848 208.148,304.848 207.825,304.848 207.815,304.848 207.718,304.848 
			207.609,304.848 207.502,304.848 207.394,304.848 207.286,304.848 207.179,304.848 207.071,304.848 207.062,304.848 
			206.964,304.848 206.856,304.848 206.846,304.848 206.738,304.848 206.64,304.848 205.456,304.848 205.446,304.848 
			205.338,304.848 205.123,304.848 204.908,304.848 204.703,304.848 204.692,304.848 204.584,304.848 204.486,304.848 
			204.379,304.848 204.369,304.848 203.087,304.848 202.979,304.848 202.764,304.848 202.548,304.848 202.333,304.848 
			202.225,304.848 202.01,304.848 202.01,321.864 202.225,321.864 202.333,321.864 202.548,321.864 202.764,321.864 
			202.979,321.864 203.087,321.864 204.369,321.864 204.379,321.864 204.486,321.864 204.584,321.864 204.692,321.864 
			204.703,321.864 204.908,321.864 205.123,321.864 205.338,321.864 205.446,321.864 205.456,321.864 206.64,321.864 
			206.738,321.864 206.846,321.864 206.856,321.864 206.964,321.864 207.062,321.864 207.071,321.864 207.179,321.864 
			207.286,321.864 207.394,321.864 207.502,321.864 207.609,321.864 207.718,321.864 207.815,321.864 207.825,321.864 
			208.148,321.864 208.256,321.864 208.471,321.864 209,321.864 209.215,321.864 209.323,321.864 209.43,321.864 209.538,321.864 
			209.646,321.864 209.753,321.864 209.861,321.864 209.969,321.864 209.979,321.864 210.077,321.864 210.184,321.864 
			210.507,321.864 210.615,321.864 210.83,321.864 210.84,321.864 211.163,321.864 211.378,321.864 211.486,321.864 
			211.594,321.864 211.702,321.864 212.338,321.864 212.563,321.864 212.779,321.864 213.2,321.864 213.209,321.864 
			213.522,321.864 213.737,321.864 213.845,321.864 213.954,321.864 214.061,321.864 214.922,321.864 215.138,321.864 
			215.47,321.864 215.568,321.864 216.332,321.864 217.829,321.864 218.378,321.864 218.691,321.864 220.101,321.864 
			220.737,321.864 222.039,321.864 222.46,321.864 224.398,321.864 224.398,304.848 222.46,304.848 		"/>
		<polygon fill="#E20E7E" points="246.474,304.848 246.366,304.848 246.15,304.848 246.042,304.848 244.976,304.848 
			244.437,304.848 244.213,304.848 244.115,304.848 244.007,304.848 243.996,304.848 243.889,304.848 243.791,304.848 
			243.683,304.848 243.674,304.848 242.382,304.848 241.95,304.848 241.852,304.848 241.735,304.848 241.637,304.848 
			241.53,304.848 241.315,304.848 241.305,304.848 241.197,304.848 241.089,304.848 240.12,304.848 240.023,304.848 
			240.012,304.848 239.904,304.848 239.591,304.848 239.376,304.848 239.043,304.848 238.946,304.848 238.837,304.848 
			238.73,304.848 237.761,304.848 237.653,304.848 237.545,304.848 236.684,304.848 236.684,321.864 237.545,321.864 
			237.653,321.864 237.761,321.864 238.73,321.864 238.837,321.864 238.946,321.864 239.043,321.864 239.376,321.864 
			239.591,321.864 239.904,321.864 240.012,321.864 240.023,321.864 240.12,321.864 241.089,321.864 241.197,321.864 
			241.305,321.864 241.315,321.864 241.53,321.864 241.637,321.864 241.735,321.864 241.852,321.864 241.95,321.864 
			242.382,321.864 243.674,321.864 243.683,321.864 243.791,321.864 243.889,321.864 243.996,321.864 244.007,321.864 
			244.115,321.864 244.213,321.864 244.437,321.864 244.976,321.864 246.042,321.864 246.15,321.864 246.366,321.864 
			246.474,321.864 246.796,321.864 247.335,321.864 247.335,304.848 246.796,304.848 		"/>
		<polygon fill="#E20E7E" points="47.054,304.848 46.839,304.848 46.839,321.864 47.054,321.864 49.198,321.864 49.413,321.864 
			49.413,304.848 49.198,304.848 		"/>
		<polygon fill="#E20E7E" points="63.412,304.848 63.304,304.848 63.089,304.848 62.874,304.848 62.012,304.848 61.807,304.848 
			61.581,304.848 61.16,304.848 61.053,304.848 60.945,304.848 60.73,304.848 60.514,304.848 59.653,304.848 59.222,304.848 
			59.222,321.864 59.653,321.864 60.514,321.864 60.73,321.864 60.945,321.864 61.053,321.864 61.16,321.864 61.581,321.864 
			61.807,321.864 62.012,321.864 62.874,321.864 63.089,321.864 63.304,321.864 63.412,321.864 63.519,321.864 64.166,321.864 
			64.166,304.848 63.519,304.848 		"/>
		<polygon fill="#E20E7E" points="71.058,304.848 70.95,304.848 70.842,304.848 70.734,304.848 70.626,304.848 70.519,304.848 
			70.304,304.848 70.196,304.848 69.981,304.848 69.873,304.848 69.129,304.848 69.012,304.848 68.914,304.848 68.699,304.848 
			68.59,304.848 68.483,304.848 68.473,304.848 68.375,304.848 68.365,304.848 68.267,304.848 68.16,304.848 68.15,304.848 
			67.945,304.848 67.837,304.848 67.622,304.848 67.513,304.848 66.653,304.848 66.114,304.848 66.006,304.848 65.791,304.848 
			65.791,321.864 66.006,321.864 66.114,321.864 66.653,321.864 67.513,321.864 67.622,321.864 67.837,321.864 67.945,321.864 
			68.15,321.864 68.16,321.864 68.267,321.864 68.365,321.864 68.375,321.864 68.473,321.864 68.483,321.864 68.59,321.864 
			68.699,321.864 68.914,321.864 69.012,321.864 69.129,321.864 69.873,321.864 69.981,321.864 70.196,321.864 70.304,321.864 
			70.519,321.864 70.626,321.864 70.734,321.864 70.842,321.864 70.95,321.864 71.058,321.864 71.273,321.864 71.488,321.864 
			71.488,304.848 71.273,304.848 		"/>
		<polygon fill="#E20E7E" points="112.623,304.848 112.3,304.848 112.193,304.848 112.084,304.848 110.802,304.848 110.694,304.848 
			110.264,304.848 109.941,304.848 109.833,304.848 109.725,304.848 109.725,321.864 109.833,321.864 109.941,321.864 
			110.264,321.864 110.694,321.864 110.802,321.864 112.084,321.864 112.193,321.864 112.3,321.864 112.623,321.864 
			113.054,321.864 113.161,321.864 113.161,304.848 113.054,304.848 		"/>
		<polygon fill="#E20E7E" points="117.145,304.848 115.11,304.848 115.002,304.848 114.786,304.848 114.786,321.864 
			115.002,321.864 115.11,321.864 117.145,321.864 117.362,321.864 117.469,321.864 117.469,304.848 117.362,304.848 		"/>
		<polygon fill="#E20E7E" points="135.56,304.848 133.631,304.848 133.308,304.848 133.201,304.848 133.201,321.864 
			133.308,321.864 133.631,321.864 135.56,321.864 135.668,321.864 135.99,321.864 135.99,304.848 135.668,304.848 		"/>
		<polygon fill="#E20E7E" points="191.124,304.848 190.909,304.848 189.088,304.848 188.873,304.848 188.765,304.848 
			188.55,304.848 188.55,321.864 188.765,321.864 188.873,321.864 189.088,321.864 190.909,321.864 191.124,321.864 
			191.232,321.864 191.447,321.864 191.447,304.848 191.232,304.848 		"/>
		<polygon fill="#E20E7E" points="92.164,304.848 90.02,304.848 89.912,304.848 89.805,304.848 89.805,321.864 89.912,321.864 
			90.02,321.864 92.164,321.864 92.271,321.864 92.379,321.864 92.379,304.848 92.271,304.848 		"/>
		<polygon fill="#E20E7E" points="102.609,304.848 102.501,304.848 102.393,304.848 102.07,304.848 101.962,304.848 
			101.855,304.848 101.747,304.848 101.532,304.848 101.424,304.848 101.317,304.848 101.209,304.848 101.102,304.848 
			100.993,304.848 100.778,304.848 100.68,304.848 100.67,304.848 100.465,304.848 100.455,304.848 100.25,304.848 100.142,304.848 
			100.132,304.848 100.034,304.848 99.809,304.848 99.711,304.848 99.603,304.848 99.495,304.848 99.388,304.848 99.378,304.848 
			99.271,304.848 99.173,304.848 99.163,304.848 99.065,304.848 99.055,304.848 98.958,304.848 98.85,304.848 98.741,304.848 
			98.732,304.848 98.634,304.848 98.624,304.848 98.517,304.848 98.419,304.848 98.409,304.848 98.311,304.848 98.302,304.848 
			98.194,304.848 98.096,304.848 97.772,304.848 97.655,304.848 97.45,304.848 97.225,304.848 97.019,304.848 96.912,304.848 
			96.803,304.848 96.696,304.848 96.373,304.848 96.265,304.848 96.158,304.848 96.05,304.848 95.942,304.848 95.835,304.848 
			95.502,304.848 95.296,304.848 94.866,304.848 93.142,304.848 93.142,321.864 94.866,321.864 95.296,321.864 95.502,321.864 
			95.835,321.864 95.942,321.864 96.05,321.864 96.158,321.864 96.265,321.864 96.373,321.864 96.696,321.864 96.803,321.864 
			96.912,321.864 97.019,321.864 97.225,321.864 97.45,321.864 97.655,321.864 97.772,321.864 98.096,321.864 98.194,321.864 
			98.302,321.864 98.311,321.864 98.409,321.864 98.419,321.864 98.517,321.864 98.624,321.864 98.634,321.864 98.732,321.864 
			98.741,321.864 98.85,321.864 98.958,321.864 99.055,321.864 99.065,321.864 99.163,321.864 99.173,321.864 99.271,321.864 
			99.378,321.864 99.388,321.864 99.495,321.864 99.603,321.864 99.711,321.864 99.809,321.864 100.034,321.864 100.132,321.864 
			100.142,321.864 100.25,321.864 100.455,321.864 100.465,321.864 100.67,321.864 100.68,321.864 100.778,321.864 100.993,321.864 
			101.102,321.864 101.209,321.864 101.317,321.864 101.424,321.864 101.532,321.864 101.747,321.864 101.855,321.864 
			101.962,321.864 102.07,321.864 102.393,321.864 102.501,321.864 102.609,321.864 102.824,321.864 103.039,321.864 
			103.039,304.848 102.824,304.848 		"/>
		<polygon fill="#E20E7E" points="268.333,304.848 267.256,304.848 267.148,304.848 267.05,304.848 266.728,304.848 
			266.179,304.848 265.974,304.848 265.318,304.848 264.995,304.848 264.897,304.848 264.789,304.848 264.349,304.848 
			264.133,304.848 263.82,304.848 263.81,304.848 262.958,304.848 262.636,304.848 261.989,304.848 261.98,304.848 261.774,304.848 
			261.764,304.848 261.549,304.848 261.451,304.848 260.473,304.848 260.365,304.848 260.149,304.848 259.621,304.848 
			259.405,304.848 259.19,304.848 258.113,304.848 258.005,304.848 257.79,304.848 257.79,321.864 258.005,321.864 258.113,321.864 
			259.19,321.864 259.405,321.864 259.621,321.864 260.149,321.864 260.365,321.864 260.473,321.864 261.451,321.864 
			261.549,321.864 261.764,321.864 261.774,321.864 261.98,321.864 261.989,321.864 262.636,321.864 262.958,321.864 
			263.81,321.864 263.82,321.864 264.133,321.864 264.349,321.864 264.789,321.864 264.897,321.864 264.995,321.864 
			265.318,321.864 265.974,321.864 266.179,321.864 266.728,321.864 267.05,321.864 267.148,321.864 267.256,321.864 
			268.333,321.864 269.087,321.864 269.41,321.864 269.41,304.848 269.087,304.848 		"/>
		<polygon fill="#E20E7E" points="88.395,304.848 88.287,304.848 88.179,304.848 88.072,304.848 87.963,304.848 87.856,304.848 
			87.748,304.848 87.641,304.848 87.533,304.848 87.425,304.848 87.318,304.848 87.21,304.848 87.103,304.848 86.995,304.848 
			86.779,304.848 86.564,304.848 86.456,304.848 86.349,304.848 86.251,304.848 86.143,304.848 86.133,304.848 86.035,304.848 
			86.026,304.848 85.928,304.848 85.917,304.848 85.82,304.848 85.81,304.848 85.712,304.848 85.702,304.848 85.604,304.848 
			85.595,304.848 85.497,304.848 85.487,304.848 85.389,304.848 85.379,304.848 85.281,304.848 85.272,304.848 85.174,304.848 
			85.066,304.848 84.959,304.848 84.851,304.848 84.841,304.848 84.744,304.848 84.635,304.848 84.42,304.848 84.41,304.848 
			84.205,304.848 84.195,304.848 84.097,304.848 83.989,304.848 83.98,304.848 83.871,304.848 83.774,304.848 83.764,304.848 
			83.666,304.848 83.558,304.848 83.451,304.848 83.343,304.848 83.235,304.848 83.128,304.848 83.02,304.848 83.011,304.848 
			82.913,304.848 82.902,304.848 82.795,304.848 82.687,304.848 82.579,304.848 82.481,304.848 82.472,304.848 82.364,304.848 
			82.257,304.848 82.149,304.848 82.051,304.848 81.836,304.848 81.825,304.848 81.62,304.848 81.512,304.848 81.405,304.848 
			81.18,304.848 80.749,304.848 80.651,304.848 80.543,304.848 80.435,304.848 80.328,304.848 80.22,304.848 80.113,304.848 
			80.103,304.848 80.005,304.848 79.898,304.848 79.887,304.848 79.79,304.848 79.779,304.848 79.672,304.848 79.564,304.848 
			79.466,304.848 79.457,304.848 79.242,304.848 79.134,304.848 79.026,304.848 78.821,304.848 78.703,304.848 78.488,304.848 
			78.39,304.848 78.38,304.848 78.165,304.848 78.057,304.848 77.744,304.848 77.528,304.848 77.42,304.848 77.313,304.848 
			77.205,304.848 77.098,304.848 76.98,304.848 76.882,304.848 76.775,304.848 76.764,304.848 76.666,304.848 76.549,304.848 
			76.442,304.848 76.344,304.848 76.226,304.848 76.128,304.848 76.021,304.848 75.806,304.848 75.698,304.848 75.472,304.848 
			75.15,304.848 75.042,304.848 74.62,304.848 74.405,304.848 74.19,304.848 74.18,304.848 74.082,304.848 73.867,304.848 
			73.113,304.848 72.791,304.848 72.683,304.848 71.821,304.848 71.821,321.864 72.683,321.864 72.791,321.864 73.113,321.864 
			73.867,321.864 74.082,321.864 74.18,321.864 74.19,321.864 74.405,321.864 74.62,321.864 75.042,321.864 75.15,321.864 
			75.472,321.864 75.698,321.864 75.806,321.864 76.021,321.864 76.128,321.864 76.226,321.864 76.344,321.864 76.442,321.864 
			76.549,321.864 76.666,321.864 76.764,321.864 76.775,321.864 76.882,321.864 76.98,321.864 77.098,321.864 77.205,321.864 
			77.313,321.864 77.42,321.864 77.528,321.864 77.744,321.864 78.057,321.864 78.165,321.864 78.38,321.864 78.39,321.864 
			78.488,321.864 78.703,321.864 78.821,321.864 79.026,321.864 79.134,321.864 79.242,321.864 79.457,321.864 79.466,321.864 
			79.564,321.864 79.672,321.864 79.779,321.864 79.79,321.864 79.887,321.864 79.898,321.864 80.005,321.864 80.103,321.864 
			80.113,321.864 80.22,321.864 80.328,321.864 80.435,321.864 80.543,321.864 80.651,321.864 80.749,321.864 81.18,321.864 
			81.405,321.864 81.512,321.864 81.62,321.864 81.825,321.864 81.836,321.864 82.051,321.864 82.149,321.864 82.257,321.864 
			82.364,321.864 82.472,321.864 82.481,321.864 82.579,321.864 82.687,321.864 82.795,321.864 82.902,321.864 82.913,321.864 
			83.011,321.864 83.02,321.864 83.128,321.864 83.235,321.864 83.343,321.864 83.451,321.864 83.558,321.864 83.666,321.864 
			83.764,321.864 83.774,321.864 83.871,321.864 83.98,321.864 83.989,321.864 84.097,321.864 84.195,321.864 84.205,321.864 
			84.41,321.864 84.42,321.864 84.635,321.864 84.744,321.864 84.841,321.864 84.851,321.864 84.959,321.864 85.066,321.864 
			85.174,321.864 85.272,321.864 85.281,321.864 85.379,321.864 85.389,321.864 85.487,321.864 85.497,321.864 85.595,321.864 
			85.604,321.864 85.702,321.864 85.712,321.864 85.81,321.864 85.82,321.864 85.917,321.864 85.928,321.864 86.026,321.864 
			86.035,321.864 86.133,321.864 86.143,321.864 86.251,321.864 86.349,321.864 86.456,321.864 86.564,321.864 86.779,321.864 
			86.995,321.864 87.103,321.864 87.21,321.864 87.318,321.864 87.425,321.864 87.533,321.864 87.641,321.864 87.748,321.864 
			87.856,321.864 87.963,321.864 88.072,321.864 88.179,321.864 88.287,321.864 88.395,321.864 88.502,321.864 88.61,321.864 
			88.61,304.848 88.502,304.848 		"/>
		<polygon fill="#E20E7E" points="104.126,304.848 103.911,304.848 103.911,321.864 104.126,321.864 106.27,321.864 
			106.485,321.864 106.485,304.848 106.27,304.848 		"/>
		<polygon fill="#E20E7E" points="150.851,304.848 150.42,304.848 150.312,304.848 150.204,304.848 149.774,304.848 
			149.666,304.848 149.461,304.848 149.03,304.848 148.492,304.848 148.158,304.848 148.06,304.848 147.953,304.848 
			147.845,304.848 147.415,304.848 147.307,304.848 147.297,304.848 145.799,304.848 144.938,304.848 144.938,321.864 
			145.799,321.864 147.297,321.864 147.307,321.864 147.415,321.864 147.845,321.864 147.953,321.864 148.06,321.864 
			148.158,321.864 148.492,321.864 149.03,321.864 149.461,321.864 149.666,321.864 149.774,321.864 150.204,321.864 
			150.312,321.864 150.42,321.864 150.851,321.864 151.389,321.864 151.82,321.864 151.82,304.848 151.389,304.848 		"/>
		<polygon fill="#E20E7E" points="228.383,304.848 227.521,304.848 226.777,304.848 226.454,304.848 226.024,304.848 
			225.162,304.848 225.162,321.864 226.024,321.864 226.454,321.864 226.777,321.864 227.521,321.864 228.383,321.864 
			228.813,321.864 229.137,321.864 229.137,304.848 228.813,304.848 		"/>
	</g>
	<g>
		<rect x="144.938" y="411.881" fill="#FFD400" width="2.359" height="18.119"/>
		<polygon fill="#FFD400" points="149.03,411.881 147.415,411.881 147.415,430 149.03,430 149.774,430 151.389,430 151.389,411.881 
			149.774,411.881 		"/>
		<polygon fill="#FFD400" points="210.077,411.881 209,411.881 207.933,411.881 207.825,411.881 207.718,411.881 206.64,411.881 
			206.64,430 207.718,430 207.825,430 207.933,430 209,430 210.077,430 210.184,430 210.292,430 210.292,411.881 210.184,411.881 		
			"/>
		<rect x="155.491" y="411.881" fill="#FFD400" width="2.359" height="18.119"/>
		<polygon fill="#FFD400" points="223.322,411.881 223.214,411.881 222.89,411.881 221.706,411.881 221.393,411.881 
			221.178,411.881 221.168,411.881 220.963,411.881 220.855,411.881 220.531,411.881 219.875,411.881 219.347,411.881 
			218.809,411.881 218.045,411.881 217.516,411.881 215.783,411.881 215.685,411.881 213.845,411.881 213.737,411.881 
			213.63,411.881 213.424,411.881 211.486,411.881 211.378,411.881 211.271,411.881 211.271,430 211.378,430 211.486,430 
			213.424,430 213.63,430 213.737,430 213.845,430 215.685,430 215.783,430 217.516,430 218.045,430 218.809,430 219.347,430 
			219.875,430 220.531,430 220.855,430 220.963,430 221.168,430 221.178,430 221.393,430 221.706,430 222.89,430 223.214,430 
			223.322,430 223.537,430 223.752,430 223.752,411.881 223.537,411.881 		"/>
		<rect x="225.377" y="411.881" fill="#FFD400" width="2.359" height="18.119"/>
		<polygon fill="#FFD400" points="250.781,411.881 248.744,411.881 248.637,411.881 248.422,411.881 248.422,430 248.637,430 
			248.744,430 250.781,430 250.996,430 251.103,430 251.103,411.881 250.996,411.881 		"/>
		<polygon fill="#FFD400" points="254.011,411.881 251.975,411.881 251.867,411.881 251.652,411.881 251.652,430 251.867,430 
			251.975,430 254.011,430 254.226,430 254.335,430 254.335,411.881 254.226,411.881 		"/>
		<rect x="239.053" y="411.881" fill="#FFD400" width="2.359" height="18.119"/>
		<rect x="244.007" y="411.881" fill="#FFD400" width="2.359" height="18.119"/>
		<polygon fill="#FFD400" points="265.426,411.881 264.78,411.881 264.564,411.881 264.349,411.881 264.251,411.881 
			264.133,411.881 263.918,411.881 263.066,411.881 262.421,411.881 262.205,411.881 261.989,411.881 261.774,411.881 
			261.559,411.881 261.559,430 261.774,430 261.989,430 262.205,430 262.421,430 263.066,430 263.918,430 264.133,430 264.251,430 
			264.349,430 264.564,430 264.78,430 265.426,430 266.61,430 266.61,411.881 		"/>
	</g>
	<g>
		<rect x="115.756" y="520" fill="#8265A6" width="2.359" height="17.982"/>
		<rect x="217.086" y="520" fill="#8265A6" width="2.359" height="17.982"/>
		<polygon fill="#8265A6" points="54.268,520 53.084,520 53.084,537.982 54.268,537.982 55.443,537.982 56.628,537.982 56.628,520 
			55.443,520 		"/>
		<polygon fill="#8265A6" points="79.349,520 79.242,520 79.134,520 78.81,520 78.595,520 78.38,520 78.057,520 77.313,520 
			77.205,520 76.99,520 76.882,520 76.775,520 76.451,520 76.236,520 76.021,520 75.698,520 75.698,537.982 76.021,537.982 
			76.236,537.982 76.451,537.982 76.775,537.982 76.882,537.982 76.99,537.982 77.205,537.982 77.313,537.982 78.057,537.982 
			78.38,537.982 78.595,537.982 78.81,537.982 79.134,537.982 79.242,537.982 79.349,537.982 79.564,537.982 79.672,537.982 
			79.672,520 79.564,520 		"/>
		<polygon fill="#8265A6" points="145.584,520 145.369,520 145.369,537.982 145.584,537.982 147.728,537.982 147.943,537.982 
			147.943,520 147.728,520 		"/>
		<polygon fill="#8265A6" points="150.42,520 150.312,520 149.568,520 149.461,520 148.06,520 147.953,520 147.953,537.982 
			148.06,537.982 149.461,537.982 149.568,537.982 150.312,537.982 150.42,537.982 151.82,537.982 151.928,537.982 151.928,520 
			151.82,520 		"/>
		<polygon fill="#8265A6" points="210.077,520 208.04,520 207.933,520 207.718,520 207.718,537.982 207.933,537.982 208.04,537.982 
			210.077,537.982 210.292,537.982 210.4,537.982 210.4,520 210.292,520 		"/>
		<polygon fill="#8265A6" points="214.491,520 214.384,520 214.169,520 214.061,520 213.954,520 213.845,520 213.748,520 
			213.737,520 213.63,520 213.424,520 212.132,520 212.025,520 211.81,520 211.702,520 211.594,520 211.486,520 211.378,520 
			211.271,520 211.271,537.982 211.378,537.982 211.486,537.982 211.594,537.982 211.702,537.982 211.81,537.982 212.025,537.982 
			212.132,537.982 213.424,537.982 213.63,537.982 213.737,537.982 213.748,537.982 213.845,537.982 213.954,537.982 
			214.061,537.982 214.169,537.982 214.384,537.982 214.491,537.982 215.783,537.982 216.107,537.982 216.107,520 215.783,520 		"/>
		<polygon fill="#8265A6" points="251.642,520 251.535,520 251.32,520 251.103,520 250.996,520 250.781,520 250.458,520 250.36,520 
			249.606,520 249.283,520 249.176,520 248.96,520 248.744,520 248.637,520 248.422,520 248.099,520 248.099,537.982 
			248.422,537.982 248.637,537.982 248.744,537.982 248.96,537.982 249.176,537.982 249.283,537.982 249.606,537.982 
			250.36,537.982 250.458,537.982 250.781,537.982 250.996,537.982 251.103,537.982 251.32,537.982 251.535,537.982 
			251.642,537.982 251.965,537.982 252.719,537.982 252.719,520 251.965,520 		"/>
		<rect x="227.208" y="520" fill="#8265A6" width="2.359" height="17.982"/>
		<rect x="243.683" y="520" fill="#8265A6" width="2.359" height="17.982"/>
		<rect x="265.974" y="520" fill="#8265A6" width="2.359" height="17.982"/>
	</g>
</g>
<style>
#g-template_viz-phone-img rect, #g-template_viz-phone-img circle, #g-template_viz-phone-img path, #g-template_viz-phone-img line, #g-template_viz-phone-img polyline { vector-effect: non-scaling-stroke; }
</style>
</svg>

